HIERARCHY
ROOT SpineBase
{
  OFFSET 0.000000 0.000000 0.000000
  CHANNELS 6 Xposition Yposition Zposition Zrotation Xrotation Yrotation
  JOINT SpineMid
  {
    OFFSET 0.000000 32.148142 -0.000000
    CHANNELS 3 Zrotation Xrotation Yrotation
    JOINT SpineShoulder
    {
      OFFSET -0.294570 23.626391 -0.809517
      CHANNELS 3 Zrotation Xrotation Yrotation
      JOINT Neck
      {
        OFFSET -0.162456 7.830327 -0.619073
        CHANNELS 3 Zrotation Xrotation Yrotation
        JOINT Head
        {
          OFFSET -1.432994 11.298501 3.992461
          CHANNELS 3 Zrotation Xrotation Yrotation
          End Site
          {
            OFFSET 0 0 0
          }
        }
      }
      JOINT ShoulderLeft
      {
        OFFSET -5.336522 -9.012696 11.554068
        CHANNELS 3 Zrotation Xrotation Yrotation
        JOINT ElbowLeft
        {
          OFFSET -5.741984 -16.710362 -20.960265
          CHANNELS 3 Zrotation Xrotation Yrotation
          JOINT WristLeft
          {
            OFFSET -8.860240 -24.140658 3.169596
            CHANNELS 3 Zrotation Xrotation Yrotation
            JOINT HandLeft
            {
              OFFSET -0.317325 -5.294424 1.100081
              CHANNELS 3 Zrotation Xrotation Yrotation
              JOINT HandTipLeft
              {
                OFFSET -2.469242 -5.516836 1.578201
                CHANNELS 3 Zrotation Xrotation Yrotation
                End Site
                {
                  OFFSET 0 0 0
                }
              }
              JOINT ThumbLeft
              {
                OFFSET 2.957735 0.865254 -1.913043
                CHANNELS 3 Zrotation Xrotation Yrotation
                End Site
                {
                  OFFSET 0 0 0
                }
              }
            }
          }
        }
      }
      JOINT ShoulderRight
      {
        OFFSET -0.352851 -3.720592 -9.652729
        CHANNELS 3 Zrotation Xrotation Yrotation
        JOINT ElbowRight
        {
          OFFSET -11.055519 -23.730996 -4.261049
          CHANNELS 3 Zrotation Xrotation Yrotation
          JOINT WristRight
          {
            OFFSET -7.505184 -18.243628 4.989086
            CHANNELS 3 Zrotation Xrotation Yrotation
            JOINT HandRight
            {
              OFFSET -0.841621 -7.782341 2.979207
              CHANNELS 3 Zrotation Xrotation Yrotation
              JOINT HandTipRight
              {
                OFFSET -2.469287 -5.758250 1.061246
                CHANNELS 3 Zrotation Xrotation Yrotation
                End Site
                {
                  OFFSET 0 0 0
                }
              }
              JOINT ThumbRight
              {
                OFFSET 1.714850 -0.848966 -1.788789
                CHANNELS 3 Zrotation Xrotation Yrotation
                End Site
                {
                  OFFSET 0 0 0
                }
              }
            }
          }
        }
      }
    }
  }
  JOINT HipLeft
  {
    OFFSET -2.174150 1.473197 -1.759708
    CHANNELS 3 Zrotation Xrotation Yrotation
    JOINT KneeLeft
    {
      OFFSET -2.457373 -31.159518 -5.399746
      CHANNELS 3 Zrotation Xrotation Yrotation
      JOINT AnkleLeft
      {
        OFFSET 3.980498 -22.601044 -17.734532
        CHANNELS 3 Zrotation Xrotation Yrotation
        JOINT FootLeft
        {
          OFFSET -5.139686 -2.930597 8.109481
          CHANNELS 3 Zrotation Xrotation Yrotation
          End Site
          {
            OFFSET 0 0 0
          }
        }
      }
    }
  }
  JOINT HipRight
  {
    OFFSET 0.615076 1.511783 -4.121464
    CHANNELS 3 Zrotation Xrotation Yrotation
    JOINT KneeRight
    {
      OFFSET 0.853902 -25.829649 -1.092068
      CHANNELS 3 Zrotation Xrotation Yrotation
      JOINT AnkleRight
      {
        OFFSET -5.295960 -38.367074 -3.887308
        CHANNELS 3 Zrotation Xrotation Yrotation
        JOINT FootRight
        {
          OFFSET -6.615445 7.830362 -3.115539
          CHANNELS 3 Zrotation Xrotation Yrotation
          End Site
          {
            OFFSET 0 0 0
          }
        }
      }
    }
  }
}
MOTION
Frames: 9
Frame Time: 0.033333
53.348544 63.454373 208.629144 -0.000000 -0.000000 40.255996 0.000000 0.000000 -40.255996 -0.000000 0.000000 0.000000 -0.000000 0.000000 0.000000 0.000000 0.000000 0.000000 -0.000000 0.000000 0.000000 -0.000000 0.000000 0.000000 -0.000000 0.000000 0.000000 -0.000000 0.000000 0.000000 0.000000 0.000000 0.000000 0.000000 0.000000 0.000000 -0.000000 0.000000 0.000000 -0.000000 0.000000 0.000000 -0.000000 0.000000 0.000000 -0.000000 0.000000 0.000000 0.000000 0.000000 0.000000 0.000000 0.000000 0.000000 0.000000 0.000000 -40.255996 -0.000000 0.000000 0.000000 -0.000000 0.000000 0.000000 0.000000 0.000000 0.000000 0.000000 0.000000 -40.255996 -0.000000 0.000000 0.000000 -0.000000 0.000000 0.000000 0.000000 0.000000 0.000000
53.204956 63.270307 208.691901 -0.248823 -0.284585 41.149162 0.374626 0.050559 -41.149945 -0.000000 0.000000 0.000000 -0.000000 0.000000 0.000000 0.000000 0.000000 0.000000 -0.000000 0.000000 0.000000 0.395267 -0.987484 0.417799 -2.676230 -3.267248 -0.667336 0.384834 3.202268 0.197164 0.000000 0.000000 0.000000 0.000000 0.000000 0.000000 -0.000000 0.000000 0.000000 0.459390 -0.646613 0.394273 -1.944682 -0.994326 -0.778079 1.439020 3.073816 -0.245350 0.000000 0.000000 0.000000 0.000000 0.000000 0.000000 0.374626 0.050559 -41.149945 -0.000000 0.000000 0.000000 -0.859552 -1.355491 -0.010874 0.000000 0.000000 0.000000 -0.386374 1.610892 -41.048960 2.773577 -0.642154 -0.191174 3.939713 -0.024773 2.090884 0.000000 0.000000 0.000000
53.076875 63.148023 208.732111 -0.457940 -0.522138 42.179935 0.689945 0.079422 -42.182500 -0.000000 0.000000 0.000000 0.642565 -0.743788 -0.317728 0.000000 0.000000 0.000000 -0.000000 0.000000 0.000000 0.761477 -1.804079 0.774445 -4.931457 -5.264522 -1.294800 0.590322 4.844804 0.559541 0.000000 0.000000 0.000000 0.000000 0.000000 0.000000 -0.000000 0.000000 0.000000 0.924056 -1.109755 0.718681 -3.590445 -1.631864 -1.416545 2.573758 5.148416 -0.364188 0.000000 0.000000 0.000000 0.000000 0.000000 0.000000 1.694205 -0.380710 -42.388706 -1.065544 0.879840 0.425599 -1.684236 -3.867943 -0.270934 0.000000 0.000000 0.000000 -0.678401 3.009483 -41.978033 5.202767 -1.227658 -0.317759 8.321134 0.400827 4.425552 0.000000 0.000000 0.000000
52.964302 63.087520 208.749775 -0.627479 -0.712792 43.339334 0.945561 0.087729 -43.343961 -0.541256 -0.647550 -0.059265 1.523851 -0.417146 -0.432230 0.000000 0.000000 0.000000 0.443176 -0.296321 0.505812 1.180742 -1.513847 0.595443 -6.629941 -5.834859 -1.798525 0.587427 4.756726 1.024342 0.000000 0.000000 0.000000 0.000000 0.000000 0.000000 -0.080820 0.175677 0.388488 2.000532 -0.915063 0.617812 -4.955782 -1.995942 -1.915774 3.450292 6.247096 -0.314815 0.000000 0.000000 0.000000 0.000000 0.000000 0.000000 2.305842 -0.606787 -43.625756 -1.420529 1.425062 0.564957 -2.539035 -5.754088 -0.375393 0.000000 0.000000 0.000000 -0.873793 4.186426 -43.043667 7.258623 -1.752270 -0.392506 13.072048 1.366855 6.940597 0.000000 0.000000 0.000000
52.867236 63.088799 208.744892 -0.757434 -0.856532 44.620664 0.218767 0.001656 -44.655861 -0.047410 -0.078686 -0.038332 1.985667 -0.573390 -0.584712 0.000000 0.000000 0.000000 0.545283 -0.369127 0.597504 1.480462 -1.784589 0.728811 -7.682100 -4.913771 -2.124479 0.372183 2.870481 1.532278 0.000000 0.000000 0.000000 0.000000 0.000000 0.000000 -0.004445 0.178228 0.465983 2.478673 -0.849545 0.697269 -6.053342 -2.140836 -2.279791 4.102165 6.388610 -0.071339 0.000000 0.000000 0.000000 0.000000 0.000000 0.000000 2.758909 -0.848631 -44.966395 -1.655375 2.039908 0.655404 -3.400983 -7.610567 -0.456776 0.000000 0.000000 0.000000 -0.976391 5.135952 -44.246481 8.917346 -2.214861 -0.427228 18.082690 2.943519 9.545096 0.000000 0.000000 0.000000
52.785678 63.151859 208.717463 -0.847670 -0.953188 46.018854 0.225058 -0.001085 -46.059547 -0.033628 -0.080385 -0.042068 2.425561 -0.738305 -0.740349 0.000000 0.000000 0.000000 0.624559 -0.427840 0.651000 1.731570 -1.936682 0.828102 -8.043894 -2.499898 -2.264961 -0.056540 -0.804746 2.035214 0.000000 0.000000 0.000000 0.000000 0.000000 0.000000 0.124404 0.154012 0.517013 2.849251 -0.588461 0.702824 -6.889749 -2.093316 -2.513771 4.555471 5.587656 0.379463 0.000000 0.000000 0.000000 0.000000 0.000000 0.000000 3.053710 -1.097992 -46.406027 -1.769954 2.722948 0.696659 -4.269232 -9.439228 -0.513338 0.000000 0.000000 0.000000 -0.995500 5.855645 -45.586297 10.160262 -2.616708 -0.432037 23.216936 5.167631 12.131474 0.000000 0.000000 0.000000
52.585783 63.329417 208.650477 -1.075411 -0.956063 48.969982 0.290082 -0.115102 -49.017106 0.037026 -0.076787 -0.041894 2.893855 -0.869401 -0.907720 0.000000 0.000000 0.000000 0.682181 -0.430357 0.634529 2.045246 -2.010568 0.929411 -7.752674 2.062279 -2.264576 -1.431293 -6.474695 2.097124 0.000000 0.000000 0.000000 0.000000 0.000000 0.000000 0.448748 -0.037005 0.563168 2.775380 0.195485 0.456430 -7.310460 -2.208028 -2.509110 4.815303 4.625607 0.747506 0.000000 0.000000 0.000000 0.000000 0.000000 0.000000 3.367351 -1.781719 -49.406200 -1.776885 4.414700 0.695784 -5.995261 -13.269192 -0.455760 0.000000 0.000000 0.000000 -0.393543 5.994527 -48.547371 10.547348 -3.208576 -0.366876 22.002190 11.324335 15.030872 0.000000 0.000000 0.000000
52.589795 63.664798 208.556844 -0.978959 -0.929284 50.536789 0.173861 -0.057426 -50.583659 0.067302 -0.059129 -0.040559 3.304371 -1.070500 -1.076655 0.000000 0.000000 0.000000 0.699958 -0.416890 0.601689 2.202093 -1.967214 0.966368 -6.451620 8.160461 -2.205456 -2.451231 -15.979040 2.993484 0.000000 0.000000 0.000000 0.000000 0.000000 0.000000 0.720375 -0.128171 0.555038 3.260253 0.762188 0.452109 -8.372731 -1.271633 -2.791249 5.269797 0.745967 2.168321 0.000000 0.000000 0.000000 0.000000 0.000000 0.000000 3.164470 -1.923741 -50.969339 -1.613023 5.079455 0.616594 -6.813085 -14.822455 -0.457604 0.000000 0.000000 0.000000 -0.262708 6.035397 -50.125182 9.870091 -3.742395 -0.242956 26.025637 15.438962 17.151061 0.000000 0.000000 0.000000
52.728905 63.861768 208.473674 -0.690185 -0.916544 51.127071 0.010100 0.117318 -51.168396 0.040516 -0.028397 -0.039476 3.713770 -1.275599 -1.247685 0.000000 0.000000 0.000000 0.709398 -0.451540 0.562088 2.338177 -1.725753 0.936821 -5.267408 13.605392 -2.238652 -2.823512 -23.117593 3.503097 0.000000 0.000000 0.000000 0.000000 0.000000 0.000000 0.984808 -0.143155 0.494621 3.156973 1.380789 0.280663 -7.859916 -0.224821 -2.516588 4.648171 -3.554617 3.273124 0.000000 0.000000 0.000000 0.000000 0.000000 0.000000 2.741166 -1.571397 -51.520907 -1.317811 4.764566 0.486004 -6.883287 -14.491220 -0.458035 0.000000 0.000000 0.000000 -0.207617 6.296012 -50.720547 9.707280 -3.940256 -0.217973 30.850998 18.717787 19.226391 0.000000 0.000000 0.000000
